# xmcd
#
# Track frame offsets:
#	150
#	11842
#	30633
#	44847
#	58761
#	70276
#	83623
#	96089
#	108925
#	123348
#	139131
#	149974
#
# Disc length: 2167 seconds
#
# Revision: 2
# Processed by: cddbd v1.5.2PL0 Copyright (c) Steve Scherf et al.
# Submitted via: audiograbber 1.83.01
#
DISCID=b208750c
DTITLE=vicente - karaoke
DYEAR=1900
DGENRE=ranchero
TTITLE0=hermoso carino
TTITLE1=me quedan todas
TTITLE2=si no te quisiera
TTITLE3=alejandra
TTITLE4=entre el amor y yo
TTITLE5=el tapatio
TTITLE6=a donde vas que mas valgas
TTITLE7=el desinfle
TTITLE8=la barca de guaymas
TTITLE9=el cuatrero
TTITLE10=el remedio
TTITLE11=de que tamano me quieres
EXTD=
EXTT0=
EXTT1=
EXTT2=
EXTT3=
EXTT4=
EXTT5=
EXTT6=
EXTT7=
EXTT8=
EXTT9=
EXTT10=
EXTT11=
PLAYORDER=
